<?xml version="1.0" encoding="utf-8"?>
<!-- Generator: Adobe Illustrator 25.3.1, SVG Export Plug-In . SVG Version: 6.00 Build 0)  -->
<svg version="1.1" id="Слой_1" xmlns="http://www.w3.org/2000/svg" xmlns:xlink="http://www.w3.org/1999/xlink" x="0px" y="0px"
	 viewBox="0 0 300 300" style="enable-background:new 0 0 300 300;" xml:space="preserve">
<style type="text/css">
	.st0{fill:#060606;stroke:#060606;stroke-miterlimit:10;}
	.st1{fill:#060606;stroke:#060606;stroke-width:2;stroke-miterlimit:10;}
	.st2{fill:#060606;stroke:#060606;stroke-width:1;stroke-miterlimit:10.0001;}
</style>
<g>
	<path class="st0" d="M178.1,36.2v23.3c-0.8,10.8,4.7,16.5,10.7,17.5v12.5c0,1.6,0.9,2.9,2.3,3.6c0.5,0.2,1.1,0.4,1.7,0.4
		c0.9,0,1.8-0.3,2.6-1l15.9-13.7c1.2-1.1,2.8-1.6,4.4-1.6h28.8c8.5,0,15.4-6.9,15.4-15.4V36.2c0-8.5-6.9-15.4-15.4-15.4h-50.9
		C185.1,20.8,178.1,27.7,178.1,36.2z M255.8,36.2v25.6c0,6.3-5.1,11.4-11.4,11.4h-28.8c-2.6,0-5.1,0.9-7,2.6l-15.8,13.8V76.4
		c0-1.7-1.2-3.1-2.9-3.3c-4-0.4-8.5-4.2-7.8-13.4c0,0,0-0.1,0-0.2V36.2c0-6.3,5.1-11.4,11.4-11.4h50.9
		C250.7,24.8,255.8,30,255.8,36.2z"/>
	<path class="st0" d="M118.8,266h-5.4c-1.1,0-2,0.9-2,2s0.9,2,2,2h5.4c1.1,0,2-0.9,2-2S119.9,266,118.8,266z"/>
	<path class="st0" d="M130.7,266h-5.4c-1.1,0-2,0.9-2,2s0.9,2,2,2h5.4c1.1,0,2-0.9,2-2S131.8,266,130.7,266z"/>
	<path class="st0" d="M118.8,259.6h-5.4c-1.1,0-2,0.9-2,2s0.9,2,2,2h5.4c1.1,0,2-0.9,2-2S119.9,259.6,118.8,259.6z"/>
	<path class="st0" d="M130.7,259.6h-5.4c-1.1,0-2,0.9-2,2s0.9,2,2,2h5.4c1.1,0,2-0.9,2-2S131.8,259.6,130.7,259.6z"/>
	<path class="st0" d="M197.8,113.8c-0.3-0.3-0.6-0.5-0.9-0.7c2.5-4.3,1.7-8.3-2.4-12.6c-0.8-0.8-2-0.8-2.8,0s-0.8,2,0,2.8
		c3.3,3.3,3.6,5.6,1.1,8.8l-8.2-0.1c-2.2-3.3-1.8-5.6,1.4-8.6c0.8-0.8,0.8-2,0.1-2.8c-0.8-0.8-2-0.8-2.8-0.1
		c-4.1,3.9-5.1,7.9-2.8,12.2c-1.6,0.9-2.8,2.6-2.8,4.6c0,1.5,0.5,2.9,1.5,3.9c0.8,0.9,1.9,1.4,3.1,1.6c-1.1,20.5-7.1,24.2-11.8,25.9
		c-1.1-5.1-5.8-9-11.4-9h-6.9c-4.3-3.7-9.3-5.7-14.3-7c-1.5-0.4-3.3-0.7-5.3-1v-0.3c-0.9-0.2-1.6-0.7-2.2-1.3
		c-0.5,0.6-1.1,1.1-1.8,1.4v2.5c0,2.6-3.5,4.9-7.7,4.9s-7.7-2.2-7.7-4.9v-2.5c-0.7-0.5-1.2-1.1-1.6-1.9c-0.5,0.8-1.4,1.5-2.4,1.9
		v0.4c-1.5,0.2-2.9,0.5-4.2,0.9c-5.4,1.5-10,3.8-13.7,7h-7.7c-5.8,0-10.7,4.2-11.5,9.6c-13.5,3-22.1,20.6-23.3,47.8
		c-2.5,0.5-4.4,2.7-4.5,5.3c0,1.5,0.5,2.9,1.5,4c0.3,0.3,0.6,0.5,0.9,0.7c-2.5,4.3-1.8,8.4,2.4,12.7c0.4,0.4,0.9,0.6,1.4,0.6
		s1-0.2,1.4-0.6c0.8-0.8,0.8-2,0.1-2.8c-3.3-3.4-3.6-5.7-1.1-9l8.1,0.1c2.2,3.4,1.8,5.7-1.4,8.8c-0.8,0.8-0.8,2-0.1,2.8
		c0.4,0.4,0.9,0.6,1.4,0.6s1-0.2,1.4-0.6c4.1-4,5-8,2.8-12.4c1.6-0.9,2.8-2.6,2.8-4.7c0-1.5-0.5-2.9-1.5-4c-0.8-0.9-1.9-1.4-3.1-1.6
		c1.3-21.7,6.3-30.1,10.4-33.3v0.1c0,4.7,3.1,8.5,6.9,8.9c0,0.6,0,1.1,0,1.7v14.9c0,15.3,3.1,29.7,8.9,41.8
		c4.2,8.7,9.2,15.2,14.8,19.3v11.6c0,0.1,0,0.1,0,0.2c0.8,8,8.6,16.6,19.7,16.6c10.8,0,19.3-8.8,19.7-16.8v-11.7
		c7.4-5.3,13.4-14.6,17.6-27.7c3.2-10,4.8-21,4.7-32.6l-0.1-16.2c0-0.4,0-0.8,0-1.2c3.8-0.5,6.7-4.3,6.7-8.9V162
		c11.8-1.9,23.7-13.1,24.3-39.3c2.5-0.5,4.4-2.6,4.5-5.3C199.4,116.3,198.8,114.9,197.8,113.8z M61.5,201.7c0.3,0.3,0.4,0.7,0.4,1.1
		c0,0.8-0.7,1.4-1.5,1.4l0,0l-10.8-0.1c-0.4,0-0.8-0.2-1.1-0.4c-0.3-0.3-0.4-0.7-0.4-1.1c0-0.8,0.7-1.4,1.5-1.4l0,0l10.8,0.1
		C60.8,201.3,61.2,201.4,61.5,201.7z M71.7,159.3c-6.1,3-12.9,12.2-14.4,37.9h-4.6c1.1-24,8.2-40.2,19.1-43.5L71.7,159.3L71.7,159.3
		z M75.7,164.1v-12.9c0-4,3.4-7.2,7.7-7.2h3.8c-4.9,6.1-7.7,14.4-8.4,25.1C77.1,168.6,75.7,166.5,75.7,164.1z M122,275.2
		c-8.5,0-14.9-6.7-15.6-12.9v-9.1c3.2,1.6,6.5,2.4,9.9,2.4h10.3c0.1,0,0.2,0,0.3,0c3.8,0,7.5-0.9,10.9-2.5v9.2
		C137.4,268.1,130.4,275.2,122,275.2z M155.5,221.8c-3.6,11.2-12.1,29.8-28.7,29.8c-0.1,0-0.2,0-0.3,0h-10.3
		c-12.6,0-21.1-13.7-25-21.9c-5.5-11.5-8.5-25.4-8.5-40v-14.9c0-28.4,13.2-35.3,23.2-38c1.1-0.3,2.2-0.5,3.4-0.7
		c1.1,4.1,5.8,7.1,11.5,7.1c5.8,0,10.5-3,11.5-7.2c1.7,0.2,3.2,0.5,4.5,0.9c11.8,3.1,22.8,9.8,23.2,37.5l0.1,16.1
		C160.1,201.7,158.6,212.2,155.5,221.8z M166.6,164.1c0,2.3-1.3,4.4-2.9,4.8c-0.8-11.8-3.8-19.7-7.9-25h3.1c4.2,0,7.7,3.2,7.7,7.2
		L166.6,164.1L166.6,164.1z M170.6,158.2V153c6.9-2.3,14.3-6.9,15.5-29.9h4.7C190.3,146.2,180.5,156.3,170.6,158.2z M193.8,119.1
		L193.8,119.1L183,119c-0.4,0-0.8-0.2-1.1-0.5s-0.4-0.6-0.4-1.1c0-0.8,0.7-1.4,1.5-1.4l0,0l10.8,0.1c0.4,0,0.8,0.2,1.1,0.5
		s0.4,0.6,0.4,1.1C195.3,118.5,194.6,119.1,193.8,119.1z"/>
	<path class="st0" d="M109.4,204.2h24.3c8.4,0,15.2-8.6,15.2-19.1s-6.8-19.1-15.2-19.1h-24.3c-8.4,0-15.2,8.6-15.2,19.1
		S101,204.2,109.4,204.2z M109.4,170h24.3c6.1,0,11.1,6.8,11.1,15.1s-5,15.1-11.1,15.1h-24.3c-6.1,0-11.1-6.8-11.1-15.1
		S103.2,170,109.4,170z"/>
	<path class="st0" d="M233.5,61.9c1.1,0,2-0.9,2-2V38.8c0-1.1-0.9-2-2-2s-2,0.9-2,2V60C231.5,61,232.4,61.9,233.5,61.9z"/>
	<path class="st0" d="M204.4,61.9c1.1,0,2-0.9,2-2v-9.3h11.5v9.3c0,1.1,0.9,2,2,2s2-0.9,2-2V38.8c0-1.1-0.9-2-2-2s-2,0.9-2,2v7.8
		h-11.5v-7.8c0-1.1-0.9-2-2-2s-2,0.9-2,2V60C202.4,61,203.3,61.9,204.4,61.9z"/>
</g>
<g id="layer1" transform="translate(0,-952.36218)">
	<path id="path3912-2" class="st0" d="M117.2,1129.2c-3,0-5.5,2.5-5.5,5.5c0,2.3,1.7,4.2,3.7,5.9c1.9,1.7,4.2,3.3,5.6,4.8
		c0.2,0.2,0.6,0.3,0.8,0.1l0.1-0.1c1.3-1.5,3.5-3.1,5.5-4.8c2-1.7,3.7-3.6,3.7-5.9c0-3-2.5-5.5-5.5-5.5c-1.7,0-3.2,0.9-4.2,2.1
		C120.3,1130.1,118.9,1129.2,117.2,1129.2L117.2,1129.2z M117.2,1130.3c1.5,0,2.9,0.8,3.7,2c0.2,0.3,0.5,0.3,0.8,0.2
		c0.1,0,0.1-0.1,0.2-0.2c0.8-1.2,2.1-2,3.7-2c2.4,0,4.4,2,4.4,4.4c0,1.7-1.4,3.4-3.3,5.1c-1.7,1.5-3.8,3-5.2,4.5
		c-1.5-1.6-3.5-3-5.3-4.5c-1.9-1.6-3.3-3.3-3.3-5C112.8,1132.3,114.8,1130.3,117.2,1130.3z"/>
</g>
<g>
	<g>
		<path class="st1" d="M175.6,20.6c-2.3-1.1-4.9-1.2-7.3-0.3c-2.4,0.9-4.3,2.6-5.3,4.9c-1.1,2.3-1.2,4.9-0.3,7.3s2.6,4.3,4.9,5.3
			c1.3,0.6,2.6,0.9,4,0.9c0.8,0,1.5-0.1,2.2-0.3c0.3,4.1-0.7,7.2-2.4,9.7c-0.5-0.5-0.9-1-1.5-1.5c-2.9-2.6-6.6-4-10.2-4h-0.1
			c-2.7,0-5.2,0.8-7.2,2.2c-8.3-4.4-18.5-6.6-30.6-6.6c-13.5,0-24.2,2.2-32.5,6.6c-2-1.5-4.6-2.3-7.3-2.2c-3.6,0-7.3,1.5-10.2,4
			c-0.5,0.5-1,0.9-1.5,1.5c-1.7-2.4-2.7-5.6-2.4-9.7c0.7,0.2,1.5,0.3,2.2,0.3c1.3,0,2.7-0.3,4-0.9c2.3-1.1,4.1-3,4.9-5.3
			c0.9-2.4,0.8-5-0.3-7.3c-1.1-2.3-3-4.1-5.3-4.9c-2.4-0.9-5-0.8-7.3,0.3c-2.3,1.1-4.1,3-4.9,5.3c-0.9,2.4-0.8,5,0.3,7.3
			c0.9,2,2.5,3.6,4.4,4.5c-0.5,4.7,0.6,8.8,3.1,12.1c-3.7,5.2-3.8,11.8,0,16.1c0.4,0.5,0.9,1,1.5,1.4c-1.8,5.1-3.1,10.9-3.8,17.6
			c-1.3,12.3,1.8,23,9,31c9.3,10.4,25.3,15.9,46,15.9c21,0,37.1-5.6,46.4-16.1c7.1-8.1,10.1-18.7,8.7-30.8c-0.8-6.8-2.4-13-4.8-18.4
			c0.2-0.2,0.4-0.4,0.6-0.6c3.8-4.3,3.7-10.9,0.1-16.1c2.5-3.3,3.6-7.4,3.1-12.1c1.9-0.9,3.5-2.5,4.4-4.5
			C182.4,28.4,180.3,22.8,175.6,20.6z M63.2,32.3c-0.8-1.8-0.9-3.8-0.2-5.7c0.7-1.9,2-3.3,3.8-4.2c1.8-0.8,3.8-0.9,5.7-0.2
			c1.9,0.7,3.3,2,4.2,3.8c0.8,1.8,0.9,3.8,0.2,5.7c-0.7,1.9-2,3.3-3.8,4.2C69.4,37.6,64.9,36,63.2,32.3z M73,48.2
			c2.6-2.2,5.7-3.5,8.9-3.5H82c1.9,0,3.7,0.5,5.2,1.3c-2.3,1.4-4.5,3.1-6.4,4.9c-4,3.9-7.2,8.6-9.5,14.3c-0.2-0.2-0.5-0.4-0.7-0.7
			C66.7,60.1,67.8,52.8,73,48.2z M174.7,85.1c1.4,11.5-1.4,21.6-8.1,29.2c-8.9,10.1-24.4,15.4-44.8,15.4c-20.2,0-35.5-5.3-44.5-15.2
			c-6.8-7.6-9.8-17.8-8.5-29.4c3.4-31.4,19.2-44.8,53-44.8C153.2,40.3,171.1,55.4,174.7,85.1z M171,64.5c-2.3-4.7-5.2-8.9-8.8-12.4
			c-2.4-2.3-5-4.4-7.9-6.1c1.5-0.8,3.3-1.3,5.2-1.3h0.1c3.1,0,6.3,1.3,8.9,3.5C173.7,52.8,174.9,60,171,64.5z M178.3,32.3
			c-1.7,3.7-6.1,5.3-9.8,3.6c-1.8-0.8-3.2-2.3-3.8-4.2c-0.7-1.9-0.6-3.9,0.2-5.7c0.8-1.8,2.3-3.2,4.2-3.8c0.8-0.3,1.7-0.5,2.6-0.5
			c1.1,0,2.1,0.2,3.1,0.7C178.4,24.2,180,28.6,178.3,32.3z"/>
		<g>
			<path class="st0" d="M142.8,59.1c-10.6-0.8-30.9-1-42.1,0C87.2,60.3,77,72.5,77,87.6c0,14.8,9.7,26.5,23.6,28.4
				c5.8,0.8,13.7,1.3,22,1.3c6.9,0,14-0.4,20.3-1.4c13.9-2.1,23.5-13.8,23.5-28.4C166.4,72.4,156.2,60.2,142.8,59.1z M142.5,113.9
				c-13.5,2.1-31.1,1.5-41.7,0C88,112.1,79,101.3,79,87.5c0-13.9,9.3-25.3,21.7-26.3c5.2-0.5,12.6-0.7,20-0.7
				c8.2,0,16.4,0.2,21.8,0.7c12.4,0.9,21.7,12.3,21.7,26.3C164.3,101.1,155.3,112,142.5,113.9z"/>
			<g>
				<path class="st0" d="M142.7,60c-10.2-0.8-20.5-1-30.7-0.9c-2.6,0-5.1,0.1-7.7,0.2c-2.6,0.1-5.1,0.2-7.6,0.9
					c-2.4,0.6-4.8,1.6-6.9,3c-2.1,1.4-4.1,3-5.7,5s-3,4.1-4.1,6.4c-1,2.3-1.8,4.8-2.3,7.3c-0.9,5-0.7,10.3,0.9,15.2
					c1.5,4.9,4.4,9.4,8.3,12.7c2,1.6,4.2,3,6.5,4.1c2.4,1,4.9,1.7,7.4,2c10.2,1.3,20.5,1.5,30.7,0.9c2.6-0.2,5.1-0.4,7.7-0.7
					c2.5-0.3,5.1-0.7,7.5-1.4c1.2-0.3,2.4-0.9,3.5-1.4c1.1-0.6,2.2-1.1,3.3-1.9c2.1-1.4,4-3,5.6-5c1.6-1.9,3-4.1,4-6.3
					c1-2.3,1.7-4.7,2.2-7.2c0.8-4.9,0.5-10.1-1.1-14.8c-0.2-0.6-0.4-1.2-0.6-1.8c-0.2-0.6-0.5-1.2-0.7-1.7c-0.6-1.1-1.1-2.2-1.8-3.2
					c-1.4-2.1-2.9-4-4.8-5.6c-1.9-1.6-3.9-3-6.2-3.9C147.6,60.9,145.1,60.3,142.7,60z M142.8,58.2c2.7,0.2,5.3,0.8,7.8,1.8
					s4.7,2.5,6.8,4.3c2,1.7,3.7,3.8,5.1,6.1c0.7,1.1,1.3,2.3,1.9,3.5c0.3,0.6,0.5,1.2,0.7,1.8c0.3,0.6,0.5,1.2,0.6,1.9
					c1.6,5.1,1.8,10.4,0.9,15.6c-0.5,2.6-1.3,5.1-2.4,7.5c-1.1,2.4-2.6,4.6-4.3,6.5c-1.7,2-3.8,3.7-6,5.1c-1.1,0.7-2.3,1.3-3.4,1.9
					c-1.2,0.5-2.4,1-3.7,1.3c-2.5,0.7-5.1,1-7.6,1.3c-2.6,0.3-5.1,0.4-7.7,0.6c-5.1,0.2-10.3,0.2-15.4,0s-10.3-0.6-15.4-1.3
					c-2.5-0.4-5-1.1-7.4-2.1c-2.3-1.1-4.5-2.5-6.5-4.1c-3.9-3.4-6.8-7.8-8.3-12.7c-1.6-4.9-1.8-10.2-1-15.3c0.4-2.5,1.2-5,2.2-7.4
					c1.1-2.3,2.4-4.6,4.1-6.6c3.3-4,7.8-7.1,12.8-8.4c2.5-0.7,5.1-0.9,7.7-1.1c2.6-0.2,5.1-0.3,7.7-0.4
					C122.2,57.7,132.5,57.6,142.8,58.2z"/>
				<path class="st0" d="M142.7,114.8c-4.9,0.7-9.8,1-14.6,1.1c-4.9,0.1-9.8,0-14.6-0.3c-2.4-0.1-4.9-0.3-7.3-0.6
					c-2.4-0.3-4.8-0.5-7.3-1c-2.4-0.6-4.7-1.4-6.9-2.7c-2.1-1.2-4.1-2.8-5.8-4.6c-1.7-1.8-3.1-3.8-4.2-6c-0.6-1.1-1-2.2-1.4-3.4
					c-0.3-1.2-0.7-2.3-0.9-3.5c-0.3-1.2-0.4-2.4-0.5-3.6c0-1.2-0.2-2.4-0.1-3.7c0-2.4,0.5-4.9,1.1-7.2c0.6-2.4,1.7-4.6,2.9-6.7
					c1.2-2.1,2.8-4,4.6-5.6c1.8-1.6,3.8-3.1,6-4c2.2-1,4.6-1.6,7-1.9c4.8-0.4,9.7-0.6,14.6-0.7c4.9-0.1,9.7-0.1,14.6-0.1
					c2.4,0,4.9,0.1,7.3,0.2l3.6,0.2l1.8,0.1l1.8,0.2c2.4,0.4,4.8,1.2,7,2.4c2.2,1.2,4.2,2.7,5.9,4.5s3.2,3.9,4.3,6.1
					c0.6,1.1,1,2.3,1.5,3.4c0.4,1.2,0.8,2.4,1,3.6c0.3,1.2,0.4,2.5,0.6,3.7c0.1,0.6,0.1,1.2,0.1,1.9v0.9v0.9c0,2.5-0.4,5-1.1,7.4
					c-0.6,2.4-1.7,4.7-3,6.9c-1.3,2.2-2.9,4.2-4.8,5.8c-1.9,1.7-4,3.1-6.3,4.1C147.6,113.7,145.1,114.4,142.7,114.8z M142.4,113
					c2.3-0.4,4.6-1.1,6.7-2.1c2.1-1,4.1-2.3,5.8-3.9c1.8-1.5,3.3-3.3,4.5-5.3s2.3-4.1,2.9-6.4c2.7-9,0.7-19.5-5.7-26.6
					c-1.6-1.7-3.4-3.3-5.5-4.5c-2.1-1.2-4.3-2-6.7-2.4l-1.8-0.3c-0.6-0.1-1.2-0.1-1.8-0.2l-3.6-0.2c-2.4-0.1-4.9-0.2-7.3-0.3
					c-9.7-0.3-19.4-0.4-29.1,0.4c-2.4,0.2-4.8,0.8-7,1.8c-2.2,0.9-4.3,2.4-6.1,4c-1.8,1.6-3.4,3.5-4.6,5.6s-2.2,4.3-2.9,6.7
					c-0.6,2.3-1.1,4.7-1.1,7.2c-0.1,1.2,0,2.4,0.1,3.6c0.2,1.2,0.3,2.4,0.6,3.6c0.2,1.2,0.6,2.3,1,3.5c0.5,1.1,0.9,2.3,1.5,3.3
					c1.1,2.1,2.5,4.1,4.2,5.8c1.7,1.7,3.6,3.2,5.7,4.3c2.1,1.1,4.4,1.9,6.7,2.4c2.3,0.5,4.8,0.6,7.2,0.9c2.4,0.2,4.8,0.3,7.3,0.4
					c4.8,0.2,9.7,0.2,14.5,0C132.8,114.2,137.6,113.8,142.4,113z"/>
			</g>
		</g>
		<path class="st1" d="M99.1,75.8c-4.3,0-7.8,3.5-7.8,7.8s3.5,7.8,7.8,7.8s7.8-3.5,7.8-7.8C106.9,79.2,103.4,75.8,99.1,75.8z
			 M99.1,89.2c-3.1,0-5.7-2.6-5.7-5.7s2.6-5.7,5.7-5.7s5.7,2.6,5.7,5.7C104.8,86.7,102.2,89.2,99.1,89.2z"/>
		<path class="st1" d="M143.6,75.8c-4.3,0-7.8,3.5-7.8,7.8s3.5,7.8,7.8,7.8s7.8-3.5,7.8-7.8S147.9,75.8,143.6,75.8z M143.6,89.2
			c-3.1,0-5.7-2.6-5.7-5.7s2.6-5.7,5.7-5.7c3.1,0,5.7,2.6,5.7,5.7C149.3,86.7,146.8,89.2,143.6,89.2z"/>
		<path class="st1" d="M134.5,93.8h-25.6c-0.6,0-1,0.5-1,1c0,7.6,6.2,13.9,13.9,13.9s13.9-6.2,13.9-13.9
			C135.5,94.3,135.1,93.8,134.5,93.8z M121.7,106.6c-6.1,0-11.2-4.7-11.7-10.7h23.4C132.9,101.9,127.8,106.6,121.7,106.6z"/>
	</g>
	<rect x="92.3" y="74.7" transform="matrix(0.8374 -0.5466 0.5466 0.8374 -26.9828 63.5419)" class="st2" width="2" height="4.8"/>
	<rect x="90.4" y="76.7" transform="matrix(0.5135 -0.8581 0.8581 0.5135 -23.3729 116.9243)" class="st2" width="2" height="4.8"/>
	<rect x="148.6" y="77.7" transform="matrix(0.8374 -0.5466 0.5466 0.8374 -18.4504 95.348)" class="st2" width="4.8" height="2"/>
	<rect x="146.6" y="75.7" transform="matrix(0.5135 -0.8581 0.8581 0.5135 6.6701 165.1786)" class="st2" width="4.8" height="2"/>
</g>
</svg>
