<?xml version="1.0" encoding="utf-8"?>
<!-- Generator: Adobe Illustrator 25.4.1, SVG Export Plug-In . SVG Version: 6.00 Build 0)  -->
<svg version="1.1" id="Слой_1" xmlns="http://www.w3.org/2000/svg" xmlns:xlink="http://www.w3.org/1999/xlink" x="0px" y="0px"
	 viewBox="0 0 300 300" style="enable-background:new 0 0 300 300;" xml:space="preserve">
<style type="text/css">
	.st0{fill:#FFFFFF;stroke:#FFFFFF;stroke-width:8;stroke-miterlimit:10;}
	.st1{fill:#8E2DE1;stroke:#FFFFFF;stroke-width:8;stroke-miterlimit:10;}
</style>
<g>
	<path class="st0" d="M277.3,53.3c1.5,2.8,6,12.1,3.2,23.3c-1.1,4.6-3.2,8.1-4.9,10.5c-1-1.2-2.3-2.4-3.6-3.6
		c-7.3-6.4-16.3-9.9-25.3-10c-0.1,0-0.2,0-0.3,0c-6.7,0-12.9,2-17.8,5.5c-20.4-11-46-16.5-75.9-16.5c-33.3,0-60,5.4-80.5,16.5
		C67,75.3,60.8,73.4,54,73.4c-9,0.1-18.1,3.6-25.3,10c-1.3,1-2.5,2.4-3.6,3.6c-1.8-2.6-3.7-6.1-5-10.4c-3.5-11.7-0.3-22,1.3-26.1
		c-2-0.6-4.1-1.2-6.1-1.8c-1.5,5-4.1,16.2-0.2,29c1.8,5.8,4.4,10.4,6.6,13.6c-8.8,12.9-9.1,29.3,0.2,39.9c1,1.3,2.3,2.4,3.6,3.3
		c-4.7,12.7-7.8,27.1-9.6,43.7c-3.2,30.5,4.5,57.1,22.4,77c23.1,25.7,62.6,39.3,114.1,39.3c52.1,0,91.8-13.8,115.1-39.9
		c17.7-20,25.2-46.5,21.5-76.5c-2.1-17-6-32.2-11.8-45.5c0.5-0.5,0.9-0.9,1.5-1.5c9.4-10.8,9-27.2,0.2-39.9c1.6-2.1,3.1-4.4,4.3-7.2
		c6.3-13.7,2.8-27.5,0.9-33.1C281.8,51.6,279.6,52.4,277.3,53.3z M10.8,37.8C8.2,32.4,8,26.3,10,20.6c2-5.6,6.2-10.1,11.7-12.7
		s11.5-2.8,17.2-0.8c5.6,2,10.1,6.2,12.7,11.7s2.8,11.5,0.8,17.2c-2,5.6-6.2,10.1-11.7,12.7C29.3,53.9,15.8,49,10.8,37.8z
		 M267.3,184.8c3,20.2-3,37.8-17.3,51.3c-19,17.6-51.9,27-95.1,27c-42.8,0-75.4-9.2-94.4-26.6c-14.4-13.3-20.7-31.2-18-51.5
		c7.2-55.1,40.8-78.6,112.4-78.6C221.8,106.2,259.7,132.7,267.3,184.8z M247.7,37.8c-2.5-5.4-2.8-11.5-0.8-17.2
		c2-5.6,6.2-10.1,11.7-12.7c5.4-2.5,11.5-2.8,17.2-0.8c5.6,2,10.1,6.2,12.7,11.7s2.8,11.5,0.8,17.2c-2,5.6-6.2,10.1-11.7,12.7
		C266.2,53.9,252.7,49,247.7,37.8z"/>
	<path class="st0" d="M204.8,114.3c-26.2-2.1-76.6-2.4-104.5,0c-33.3,2.9-58.5,33.2-58.5,70.5c0,36.8,24.1,65.8,58.4,70.4
		c14.4,2,34,3.3,54.5,3.3c17.1,0,34.8-0.9,50.3-3.3c34.4-5.3,58.4-34.3,58.4-70.4C263.5,147.2,238.2,116.9,204.8,114.3z
		 M204.3,250.1c-33.5,5.2-77.1,3.6-103.3,0C69.2,245.7,47,218.9,47,184.7c0-34.5,23.1-62.8,53.8-65.4c13-1,31.3-1.6,49.6-1.6
		c20.2,0,40.6,0.6,54,1.6c30.7,2.3,53.8,30.5,53.8,65.4C258.4,218.3,236.1,245.3,204.3,250.1z"/>
	<path class="st1" d="M97.6,152.5c-10.6,0-19.3,8.7-19.3,19.3s8.7,19.3,19.3,19.3s19.3-8.7,19.3-19.3
		C117,161.2,108.2,152.5,97.6,152.5z M97.6,185.9c-7.8,0-14.1-6.4-14.1-14.1s6.4-14.1,14.1-14.1c7.8,0,14.1,6.4,14.1,14.1
		S105.3,185.9,97.6,185.9z"/>
	<path class="st1" d="M204.9,152.5c-10.6,0-19.3,8.7-19.3,19.3s8.7,19.3,19.3,19.3s19.3-8.7,19.3-19.3S215.5,152.5,204.9,152.5z
		 M207,185.9c-7.8,0-14.1-6.4-14.1-14.1s6.4-14.1,14.1-14.1c7.8,0,14.1,6.4,14.1,14.1S214.8,185.9,207,185.9z"/>
	<path class="st1" d="M184.4,200.3h-63.6c-1.5,0-2.7,1.2-2.7,2.7c0,18.9,15.5,34.3,34.3,34.3s34.3-15.5,34.3-34.3
		C187.1,201.3,185.8,200.3,184.4,200.3z M152.6,231.9c-15.1,0-27.7-11.7-29-26.6h58.1C180.5,220.2,167.9,231.9,152.6,231.9z"/>
</g>
<ellipse class="st0" cx="153.9" cy="218.7" rx="25.6" ry="13.3"/>
<ellipse class="st0" cx="53.2" cy="108.1" rx="26.6" ry="27.8"/>
<circle class="st0" cx="254.9" cy="106" r="25.7"/>
<circle class="st0" cx="97.6" cy="171.8" r="11.4"/>
<circle class="st0" cx="207" cy="171.8" r="9.8"/>
</svg>
