<?xml version="1.0" encoding="utf-8"?>
<!-- Generator: Adobe Illustrator 25.3.1, SVG Export Plug-In . SVG Version: 6.00 Build 0)  -->
<svg version="1.1" id="Слой_1" xmlns="http://www.w3.org/2000/svg" xmlns:xlink="http://www.w3.org/1999/xlink" x="0px" y="0px"
	 viewBox="0 0 300 300" style="enable-background:new 0 0 300 300;" xml:space="preserve">
<style type="text/css">
	.st0{fill:#8E2DE1;stroke:#8E2DE1;stroke-width:8;stroke-miterlimit:10;}
</style>
<g>
	<path class="st0" d="M281,18.1c-5.5-2.6-11.7-2.8-17.4-0.7c-5.7,2.1-10.2,6.3-12.8,11.8c-2.6,5.5-2.8,11.7-0.7,17.4
		s6.3,10.2,11.8,12.8c3,1.4,6.3,2.1,9.5,2.1c1.7,0,3.6-0.2,5.3-0.7c0.7,9.7-1.7,17.3-5.8,23.1c-1-1.2-2.2-2.3-3.5-3.5
		c-7-6.2-15.7-9.5-24.4-9.6c-0.1,0-0.2,0-0.3,0c-6.5,0-12.4,1.9-17.2,5.3c-19.7-10.6-44.3-15.9-73.2-15.9
		c-32.1,0-57.8,5.2-77.6,15.9c-4.9-3.5-10.9-5.3-17.5-5.3c-8.7,0.1-17.4,3.5-24.4,9.6c-1.3,1-2.4,2.3-3.5,3.5
		c-4.2-5.8-6.6-13.3-5.8-23.1c1.7,0.5,3.5,0.7,5.3,0.7c3.1,0,6.4-0.7,9.5-2.1c5.5-2.6,9.7-7.1,11.8-12.8s1.9-11.8-0.7-17.4
		c-2.6-5.5-7.1-9.7-12.8-11.8S25,15.5,19.4,18.1C14,20.6,9.7,25.1,7.6,30.8c-2.1,5.7-1.9,11.8,0.7,17.4c2.2,4.9,6,8.6,10.4,10.8
		c-1.2,11.4,1.4,21.1,7.4,28.9c-8.5,12.4-8.8,28.2,0.2,38.5c1,1.3,2.2,2.3,3.5,3.2c-4.5,12.2-7.5,26.1-9.3,42.1
		c-3.1,29.4,4.3,55,21.6,74.2c22.3,24.8,60.3,37.9,110,37.9c50.2,0,88.5-13.3,110.9-38.5c17.1-19.3,24.3-44.8,20.7-73.7
		c-2-16.4-5.8-31-11.4-43.9c0.5-0.5,0.9-0.9,1.4-1.4c9.1-10.4,8.7-26.2,0.2-38.5c6-7.9,8.6-17.6,7.4-28.9c4.5-2.2,8.2-5.9,10.4-10.8
		C297.4,36.9,292.4,23.4,281,18.1z M12.5,46.2c-2-4.3-2.2-9.1-0.6-13.6c1.6-4.4,4.9-8,9.2-10s9.1-2.2,13.6-0.6c4.4,1.6,8,4.9,10,9.2
		s2.2,9.1,0.6,13.6c-1.6,4.4-4.9,8-9.2,10C27.1,58.9,16.5,55,12.5,46.2z M35.9,84.2c6.2-5.3,13.7-8.4,21.1-8.4c0.1,0,0.1,0,0.2,0
		c4.5,0,8.8,1,12.3,3.1c-5.6,3.5-10.8,7.3-15.3,11.7c-9.6,9.2-17.2,20.4-22.7,34.2c-0.6-0.5-1.2-1-1.6-1.6
		C20.7,112.6,23.4,95.1,35.9,84.2z M278.8,172.4c3.4,27.5-3.4,51.6-19.5,69.9c-21.4,24-58.4,36.8-107.1,36.8
		c-48.2,0-84.9-12.5-106.3-36.3c-16.2-18.1-23.3-42.5-20.3-70.3c8.1-75.1,46-107.2,126.6-107.2C227.6,65.2,270.2,101.3,278.8,172.4z
		 M270.2,123.1c-5.5-11.4-12.5-21.2-20.9-29.6c-5.7-5.6-12-10.4-18.9-14.6c3.6-2,7.8-3.1,12.3-3.1c0.1,0,0.1,0,0.2,0
		c7.5,0.1,15.1,3,21.1,8.4C276.6,95,279.2,112.4,270.2,123.1z M287.5,46.2c-4.1,8.8-14.6,12.8-23.6,8.6c-4.3-2-7.5-5.6-9.2-10
		c-1.6-4.4-1.4-9.3,0.6-13.6s5.6-7.5,10-9.2c2-0.7,4.1-1,6.2-1c2.6,0,5.1,0.6,7.4,1.6C287.7,26.8,291.5,37.3,287.5,46.2z"/>
	<path class="st0" d="M202.5,110.3c-25.3-2-73.8-2.3-100.7,0c-32.1,2.8-56.4,32-56.4,68c0,35.5,23.2,63.4,56.3,67.9
		c13.9,1.9,32.8,3.2,52.5,3.2c16.5,0,33.5-0.9,48.5-3.2c33.2-5.1,56.3-33.1,56.3-67.9C259.1,142,234.7,112.8,202.5,110.3z
		 M202,241.2c-32.3,5-74.3,3.5-99.6,0c-30.6-4.2-52-30.1-52-63c0-33.3,22.3-60.5,51.9-63c12.5-1,30.2-1.5,47.8-1.5
		c19.5,0,39.1,0.6,52.1,1.5c29.6,2.2,51.9,29.4,51.9,63C254.1,210.6,232.6,236.6,202,241.2z"/>
	<path class="st0" d="M98.1,150c-10.2,0-18.6,8.4-18.6,18.6s8.4,18.6,18.6,18.6s18.6-8.4,18.6-18.6C116.8,158.4,108.4,150,98.1,150z
		 M98.1,182.2c-7.5,0-13.6-6.2-13.6-13.6S90.7,155,98.1,155c7.5,0,13.6,6.2,13.6,13.6S105.6,182.2,98.1,182.2z"/>
	<path class="st0" d="M204.6,150c-10.2,0-18.6,8.4-18.6,18.6s8.4,18.6,18.6,18.6s18.6-8.4,18.6-18.6S214.8,150,204.6,150z
		 M204.6,182.2c-7.5,0-13.6-6.2-13.6-13.6s6.2-13.6,13.6-13.6c7.5,0,13.6,6.2,13.6,13.6S212.1,182.2,204.6,182.2z"/>
	<path class="st0" d="M182.8,193.2h-61.3c-1.4,0-2.6,1.2-2.6,2.6c0,18.2,14.9,33.1,33.1,33.1s33.1-14.9,33.1-33.1
		C185.4,194.2,184.2,193.2,182.8,193.2z M152.2,223.7c-14.6,0-26.7-11.3-28-25.6h56C179,212.4,166.9,223.7,152.2,223.7z"/>
</g>
<rect x="82.1" y="141.6" transform="matrix(0.8374 -0.5466 0.5466 0.8374 -66.8255 70.1289)" class="st0" width="4.8" height="11.5"/>
<rect x="71.7" y="154.5" transform="matrix(0.5135 -0.8581 0.8581 0.5135 -101.4528 141.4902)" class="st0" width="4.8" height="11.5"/>
<rect x="222.3" y="158" transform="matrix(0.8374 -0.5466 0.5466 0.8374 -50.5941 150.7198)" class="st0" width="11.5" height="4.8"/>
<rect x="214.1" y="144" transform="matrix(0.5135 -0.8581 0.8581 0.5135 -18.6534 259.8909)" class="st0" width="11.5" height="4.8"/>
</svg>
