<?xml version="1.0" encoding="utf-8"?>
<!-- Generator: Adobe Illustrator 25.3.1, SVG Export Plug-In . SVG Version: 6.00 Build 0)  -->
<svg version="1.1" id="Слой_1" xmlns="http://www.w3.org/2000/svg" xmlns:xlink="http://www.w3.org/1999/xlink" x="0px" y="0px"
	 viewBox="0 0 300 300" style="enable-background:new 0 0 300 300;" xml:space="preserve">
<style type="text/css">
	.st0{fill:#060606;}
	.st1{fill:#060606;stroke:#060606;stroke-width:1;stroke-miterlimit:10.0001;}
</style>
<g>
	<path class="st0" d="M85.2,37.5c1.8,0,3.6-0.4,5.4-1.2c6.5-3,9.3-10.7,6.3-17.1c-1.4-3.1-4-5.5-7.3-6.7c-3.2-1.2-6.7-1.1-9.9,0.4
		c-6.5,3-9.3,10.7-6.3,17.1c1.2,2.6,3.2,4.6,5.5,5.9c-0.4,5.8,0.9,10.8,3.9,14.9c-4.5,6.8-4.5,15.4,0.5,21.2c0.5,0.6,1,1.1,1.6,1.6
		c-2.3,6.5-3.9,13.8-4.8,22c-1.7,15.9,2.3,29.8,11.7,40.2c12.1,13.4,32.6,20.5,59.3,20.5c27.1,0,47.7-7.2,59.8-20.8
		c9.3-10.5,13.1-24.3,11.2-40c-1-8.6-3-16.3-5.9-23.2c0.1-0.1,0.3-0.3,0.4-0.4c5-5.7,4.9-14.3,0.5-21.2c3-4.1,4.3-9.2,3.9-14.9
		c2.3-1.3,4.3-3.3,5.5-5.9c1.4-3.1,1.6-6.6,0.4-9.9c-1.2-3.2-3.6-5.8-6.7-7.3c-6.5-3-14.1-0.2-17.1,6.3c-3,6.5-0.2,14.1,6.3,17.1
		c1.7,0.8,3.6,1.2,5.4,1.2c0.7,0,1.4-0.1,2.1-0.2c0.1,4.1-0.8,7.4-2.5,10.1c-0.4-0.4-0.8-0.8-1.2-1.2c-3.9-3.4-8.7-5.3-13.5-5.3
		c-3.5,0-6.8,1-9.5,2.8c-10.6-5.6-23.6-8.4-39-8.4c-17,0-30.7,2.7-41.4,8.4c-2.7-1.8-5.9-2.7-9.4-2.7c-4.8,0-9.7,1.9-13.5,5.3
		c-0.4,0.4-0.8,0.8-1.2,1.2c-1.7-2.7-2.6-6-2.5-10.1C83.8,37.4,84.5,37.5,85.2,37.5z M211.3,32.5c-4.3-2-6.2-7.2-4.2-11.5
		c1.5-3.2,4.6-5,7.9-5c1.2,0,2.5,0.3,3.6,0.8c2.1,1,3.7,2.7,4.5,4.9s0.7,4.5-0.3,6.6C220.8,32.6,215.6,34.5,211.3,32.5z M199.5,45.2
		c0,0,0.1,0,0.1,0c3.8,0,7.7,1.6,10.8,4.3c6,5.2,7.6,13.4,3.9,18.7c-4.8-9.3-11.4-16.6-19.9-22C196,45.5,197.7,45.2,199.5,45.2z
		 M151.2,39.5c39.8,0,62.3,19,66.8,56.6c1.8,14.5-1.8,27.1-10.2,36.7c-11.2,12.7-30.8,19.4-56.6,19.4c-25.5,0-44.9-6.6-56.2-19.1
		c-8.6-9.5-12.2-22.3-10.7-37C88.6,56.4,108.6,39.5,151.2,39.5z M89.6,49.5c3.1-2.7,7-4.3,10.8-4.3c0,0,0.1,0,0.1,0
		c1.8,0,3.5,0.3,5,1c-8.4,5.5-14.7,13.2-19,23.2c0,0-0.1-0.1-0.1-0.1C81.8,63.9,83.2,55,89.6,49.5z M77.3,28.2
		c-2-4.3-0.1-9.5,4.2-11.5c1.2-0.5,2.4-0.8,3.6-0.8c1,0,2,0.2,3,0.5c2.2,0.8,3.9,2.4,4.9,4.5c2,4.3,0.1,9.5-4.2,11.5
		C84.5,34.5,79.3,32.6,77.3,28.2z"/>
	<path class="st0" d="M124.2,136.2c7.5,1,17.6,1.7,28.1,1.7c8.9,0,18-0.5,26-1.7c18.1-2.8,30.7-18,30.7-37.1
		c0-19.8-13.3-35.7-30.9-37.1c-13.6-1-39.5-1.3-53.9,0c-17.6,1.5-30.9,17.5-30.9,37.1C93.4,118.5,106,133.7,124.2,136.2z
		 M124.6,66.3c6.7-0.6,16-0.8,25.5-0.8c10.4,0,20.9,0.3,27.7,0.8c15.4,1.2,27,15.3,27,32.9c0,16.9-11.2,30.4-27.1,32.9
		c-17.1,2.6-39.5,1.8-53,0c-16-2.2-27.1-15.7-27.1-32.9C97.6,81.7,109.2,67.6,124.6,66.3z"/>
	<path class="st0" d="M122.3,104.7c5.9,0,10.7-4.8,10.7-10.7s-4.8-10.7-10.7-10.7c-5.9,0-10.7,4.8-10.7,10.7
		C111.6,99.9,116.4,104.7,122.3,104.7z M122.3,87.5c3.6,0,6.5,2.9,6.5,6.5c0,3.6-2.9,6.5-6.5,6.5c-3.6,0-6.5-2.9-6.5-6.5
		C115.9,90.4,118.8,87.5,122.3,87.5z"/>
	<path class="st0" d="M179.2,104.7c5.9,0,10.7-4.8,10.7-10.7s-4.8-10.7-10.7-10.7c-5.9,0-10.7,4.8-10.7,10.7
		S173.3,104.7,179.2,104.7z M179.2,87.5c3.6,0,6.5,2.9,6.5,6.5c0,3.6-2.9,6.5-6.5,6.5c-3.6,0-6.5-2.9-6.5-6.5
		C172.7,90.4,175.6,87.5,179.2,87.5z"/>
	<path class="st0" d="M151.2,125.1c8.3,0,15-6.7,15-15c0-1.2-0.9-2.1-2.1-2.1h-25.8c-1.2,0-2.1,0.9-2.1,2.1
		C136.2,118.4,142.9,125.1,151.2,125.1z M161.8,112.2c-1,4.9-5.4,8.7-10.6,8.7c-5.2,0-9.6-3.7-10.6-8.7H161.8z"/>
	<path class="st0" d="M53.6,273.3c0,1.1,0,2.1-0.1,3.1c-0.1,4.2-0.2,7.8,2,10c1.2,1.2,2.9,1.9,5.2,1.9h178.7c2.2,0,3.9-0.6,5.2-1.9
		c2.2-2.3,2.1-5.9,2-10c0-1-0.1-2-0.1-3.1c0-1.2-0.9-2.1-2.1-2.1h-4.8c0.9-2,1.5-4.2,1.5-6.6v-64.8c0-8.5-6.9-15.4-15.4-15.4h-16.2
		c-8.2-13.3-24.3-22.4-42.8-22.4h-33.1c-18.5,0-34.6,9.1-42.8,22.4H74.5c-8.5,0-15.4,6.9-15.4,15.4v64.8c0,2.4,0.5,4.6,1.5,6.6h-4.9
		C54.5,271.2,53.6,272.2,53.6,273.3z M133.5,166.3h33.1c15.9,0,29.9,7.3,37.7,18.2H95.8C103.6,173.5,117.6,166.3,133.5,166.3z
		 M63.3,199.8c0-6.2,5-11.2,11.2-11.2h151.1c6.2,0,11.2,5,11.2,11.2v64.8c0,2.5-0.8,4.7-2.2,6.6H65.5c-1.4-1.8-2.2-4.1-2.2-6.6
		C63.3,264.6,63.3,199.8,63.3,199.8z M57.8,276.6c0-0.4,0-0.7,0-1.1h184.4c0,0.4,0,0.7,0,1.1c0.1,3.1,0.2,6-0.8,7
		c-0.4,0.4-1.1,0.6-2.1,0.6H60.7c-1,0-1.7-0.2-2.1-0.6C57.6,282.5,57.7,279.6,57.8,276.6z"/>
	<path class="st0" d="M150,244.9c6.5,0,11.9-5.3,11.9-11.9s-5.3-11.9-11.9-11.9s-11.9,5.3-11.9,11.9
		C138.2,239.5,143.5,244.9,150,244.9z M150,225.4c4.2,0,7.6,3.4,7.6,7.6c0,4.2-3.4,7.6-7.6,7.6s-7.6-3.4-7.6-7.6
		C142.4,228.8,145.8,225.4,150,225.4z"/>
</g>
<rect x="112.9" y="81.8" transform="matrix(0.8374 -0.5466 0.5466 0.8374 -27.4991 75.9367)" class="st1" width="2" height="4.8"/>
<rect x="109.9" y="85.1" transform="matrix(0.5135 -0.8581 0.8581 0.5135 -21.4948 138.2158)" class="st1" width="2.5" height="6"/>
<rect x="188.7" y="87.5" transform="matrix(0.9295 -0.3689 0.3689 0.9295 -19.1753 76.7402)" class="st1" width="4.8" height="2"/>
<rect x="184.8" y="83.9" transform="matrix(0.6741 -0.7386 0.7386 0.6741 -1.6708 166.4256)" class="st1" width="6" height="2.5"/>
</svg>
