<?xml version="1.0" encoding="utf-8"?>
<!-- Generator: Adobe Illustrator 25.3.1, SVG Export Plug-In . SVG Version: 6.00 Build 0)  -->
<svg version="1.1" id="Слой_1" xmlns="http://www.w3.org/2000/svg" xmlns:xlink="http://www.w3.org/1999/xlink" x="0px" y="0px"
	 viewBox="0 0 300 300" style="enable-background:new 0 0 300 300;" xml:space="preserve">
<style type="text/css">
	.st0{fill:#8E2DE2;stroke:#FFFFFF;stroke-miterlimit:10;}
	.st1{fill:#8E2DE2;stroke:#8E2DE2;stroke-width:16;stroke-miterlimit:10;}
	.st2{fill:#8E2DE2;}
	.st3{fill:#FFFFFF;stroke:#FFFFFF;stroke-width:5;stroke-miterlimit:10;}
	.st4{fill:#FFFFFF;}
</style>
<g>
	<circle class="st0" cx="150.6" cy="150.4" r="146.7"/>
	<g>
		<path class="st1" d="M268.8,22.3c-5.1-2.4-10.8-2.6-16.1-0.6c-5.3,1.9-9.5,5.8-11.8,10.9c-2.4,5.1-2.6,10.8-0.6,16.1
			c1.9,5.3,5.8,9.5,10.9,11.8c2.9,1.3,5.9,1.9,8.8,1.9c1.7,0,3.3-0.2,4.9-0.6c0.7,9-1.6,16-5.4,21.4c-1-1.1-2.1-2.2-3.2-3.2
			c-6.5-5.7-14.5-8.9-22.6-8.9c-0.1,0-0.2,0-0.3,0c-6,0-11.5,1.7-16,4.9c-18.3-9.8-41.1-14.7-67.9-14.7c-29.9,0-53.6,4.9-72.1,14.7
			c-4.5-3.3-10.1-5-16.3-4.9C53,71.3,45,74.4,38.5,80.1c-1.2,1-2.2,2.1-3.2,3.2c-3.8-5.4-6.1-12.4-5.4-21.4c1.6,0.4,3.3,0.6,4.9,0.6
			c3,0,6-0.6,8.8-1.9c5.1-2.4,9-6.6,10.9-11.8c1.9-5.3,1.7-11-0.6-16.1c-2.4-5.1-6.6-9-11.8-10.9c-5.3-1.9-11-1.7-16.1,0.6
			c-5.1,2.4-9,6.6-10.9,11.8c-1.9,5.3-1.7,11,0.6,16.1c2.1,4.5,5.6,7.9,9.7,10c-1,10.5,1.3,19.6,6.9,26.8
			c-7.9,11.5-8.2,26.1,0.3,35.7c1,1.1,2.1,2.1,3.2,3c-4,11.2-6.8,24.1-8.4,39c-2.9,27.2,4,51,20,68.8c20.7,23,56,35.2,102,35.2
			c46.6,0,82.1-12.3,102.8-35.7c15.8-17.9,22.5-41.5,19.2-68.4c-1.8-15.1-5.4-28.7-10.6-40.7c0.4-0.4,0.9-0.9,1.3-1.3
			c8.4-9.6,8.1-24.3,0.3-35.7c5.6-7.3,7.9-16.3,6.9-26.8c4.1-2.1,7.6-5.5,9.7-10C284,39.8,279.4,27.2,268.8,22.3z M19.8,48.4
			c-1.8-4-2-8.4-0.5-12.6c1.5-4.1,4.5-7.4,8.5-9.2c4-1.8,8.4-2,12.6-0.5c4.1,1.5,7.4,4.5,9.2,8.5c1.8,4,2,8.4,0.5,12.6
			c-1.5,4.1-4.5,7.4-8.5,9.2C33.4,60.2,23.6,56.6,19.8,48.4z M41.5,83.6c5.7-5,12.6-7.7,19.6-7.8c0.1,0,0.2,0,0.2,0
			c4.2,0,8.1,1,11.5,2.9c-5.2,3.2-10,6.8-14.3,10.9c-9,8.6-15.9,19-21.1,31.7c-0.5-0.5-1-1-1.5-1.5C27.4,110,29.9,93.8,41.5,83.6z
			 M266.9,165.4c3.1,25.5-3.1,47.9-18.1,64.7c-19.8,22.3-54.1,34.1-99.4,34.1c-44.7,0-78.8-11.6-98.6-33.7
			c-15.1-16.8-21.6-39.4-18.9-65.2C39.5,95.7,74.6,66,149.4,66C219.3,66,258.9,99.5,266.9,165.4z M258.8,119.7
			c-5.1-10.5-11.6-19.7-19.4-27.4c-5.2-5.2-11.1-9.7-17.5-13.6c3.3-1.9,7.2-2.9,11.4-2.9c0.1,0,0.2,0,0.2,0c7,0.1,14,2.8,19.6,7.8
			C264.8,93.7,267.3,109.8,258.8,119.7z M274.9,48.4c-3.8,8.2-13.6,11.8-21.8,8c-4-1.8-7-5.1-8.5-9.2s-1.3-8.6,0.5-12.6
			c1.8-4,5.1-7,9.2-8.5c1.8-0.7,3.8-1,5.7-1c2.3,0,4.7,0.5,6.9,1.5C275.1,30.4,278.7,40.1,274.9,48.4z"/>
		<g>
			<path class="st2" d="M196.1,107.8c-23.5-1.8-68.4-2.2-93.4,0c-29.8,2.6-52.3,29.7-52.3,63c0,32.9,21.5,58.8,52.2,63
				c12.9,1.8,30.5,3,48.7,3c15.3,0,31.1-0.9,45-3c30.7-4.7,52.2-30.6,52.2-63C248.5,137.2,226,110.1,196.1,107.8z M195.6,229.3
				c-29.9,4.6-68.8,3.2-92.4,0C74.9,225.4,55,201.4,55,170.9c0-30.9,20.7-56,48.1-58.4c11.6-1,27.9-1.4,44.4-1.4
				c18.1,0,36.3,0.5,48.3,1.4c27.4,2.1,48.1,27.2,48.1,58.4C243.9,200.9,224,224.9,195.6,229.3z"/>
			<g>
				<path class="st2" d="M195.6,115.1c-11.1-1.2-22.4-1.9-33.7-2.5c-11.3-0.6-22.6-1.1-33.9-1.3c-5.7-0.1-11.3-0.2-16.9-0.1
					c-2.8,0-5.7,0.1-8.4,0.2c-2.7,0.1-5.3,0.5-7.9,1c-2.6,0.5-5.2,1.3-7.7,2.3c-2.5,1-5,2.1-7.3,3.5c-4.7,2.8-9,6.3-12.7,10.4
					c-7.5,8.2-12.5,18.6-14.8,29.6c-0.5,2.8-1,5.6-1.2,8.4c-0.1,1.4-0.2,2.8-0.2,4.2l0.1,4.2c0.3,5.6,1,11.3,2.8,16.7
					c1.7,5.4,3.9,10.7,7.1,15.4c3.1,4.7,6.8,9.2,11.2,12.8c4.4,3.6,9.2,6.7,14.4,9c5.3,2.2,10.8,3.6,16.4,4.4
					c11.3,1.3,22.7,1.9,34,2.1c11.4,0.1,22.7-0.3,34-1.3c5.6-0.5,11.3-1.2,16.8-2c2.8-0.4,5.6-0.9,8.3-1.4c2.6-0.7,5.3-1.2,7.8-2.2
					c1.3-0.4,2.6-0.8,3.8-1.4c1.2-0.6,2.5-1.1,3.7-1.7l3.5-2c0.6-0.3,1.1-0.7,1.7-1.1l1.6-1.1l1.6-1.1l1.5-1.3l1.5-1.3l0.8-0.6
					l0.7-0.7l2.8-2.8l2.5-3c3.2-4.2,5.9-8.7,7.9-13.5c1.9-4.9,3.3-9.9,4-15c0.2-1.3,0.2-2.6,0.4-3.9l0.2-1.9l0-1.9
					c0-1.3,0-2.6,0-3.9c-0.1-1.3-0.1-2.6-0.3-3.9c-0.5-5.2-1.6-10.2-3.3-15c-1.7-4.8-4-9.3-6.8-13.5c-2.8-4.1-6.1-7.8-9.9-11
					c-1.8-1.6-3.8-3.1-5.8-4.4c-2-1.3-4.1-2.5-6.3-3.6c-2.2-1-4.5-1.9-6.8-2.6C200.4,115.9,198,115.4,195.6,115.1z M196.7,100.5
					c12.9,0.6,26,5.6,35.7,14.3c4.9,4.3,8.9,9.4,12.3,14.9c1.6,2.7,3.1,5.6,4.4,8.5c1.2,2.9,2.3,5.9,3.2,8.9
					c1.7,6.1,2.7,12.3,2.9,18.5c0.1,1.6,0,3.1,0,4.7c0,1.5-0.2,3.1-0.3,4.6l-0.2,2.3c-0.1,0.8-0.2,1.5-0.4,2.3
					c-0.3,1.5-0.5,3.1-0.8,4.6c-1.3,6.1-3.4,12-6.1,17.5c-2.8,5.5-6.4,10.6-10.6,15.1l-3.2,3.3l-3.5,3l-0.9,0.7l-0.9,0.7l-1.9,1.3
					l-1.9,1.3l-2,1.1l-2,1.1c-0.7,0.4-1.3,0.8-2,1.1l-4.1,1.9c-1.4,0.6-2.8,1-4.3,1.5c-1.4,0.6-2.9,0.9-4.3,1.3
					c-2.9,0.9-5.9,1.2-8.8,1.7c-2.9,0.3-5.7,0.6-8.6,0.8c-5.7,0.4-11.5,0.7-17.2,0.8c-11.5,0.2-22.9-0.1-34.3-0.8
					c-5.7-0.3-11.4-0.8-17.1-1.3c-5.7-0.5-11.3-1.2-17-2c-5.6-0.9-11.2-2.5-16.4-4.8c-5.2-2.4-10-5.5-14.4-9.2
					c-8.6-7.5-15.1-17.3-18.5-28.2c-1.8-5.4-2.8-11.1-3.3-16.8c-0.5-5.7-0.3-11.5,0.6-17.2c1.7-11.4,6.2-22.5,13.4-31.7
					c7.2-9.3,17.3-16.6,28.9-20.1c2.9-0.9,5.9-1.6,8.9-2c2.9-0.4,5.8-0.7,8.6-1c5.7-0.6,11.5-1.1,17.2-1.4
					c11.5-0.8,22.9-1.2,34.4-1.5C173.6,100.1,185,100.1,196.7,100.5z"/>
				<path class="st2" d="M196.7,236.5c-22.2,2.5-44.1,2-65.9,0c-5.4-0.5-10.9-1.1-16.3-1.9c-2.7-0.4-5.4-0.8-8.1-1.2
					c-1.4-0.2-2.7-0.4-4.1-0.7l-4.2-1c-5.5-1.5-10.8-3.7-15.6-6.6c-4.8-3-9.1-6.6-12.8-10.8l-2.7-3.2l-2.4-3.4
					c-0.4-0.6-0.8-1.2-1.1-1.8l-1-1.8c-0.3-0.6-0.7-1.2-1-1.8l-0.9-1.9l-0.9-1.9l-0.4-0.9l-0.4-1l-1.4-3.9c-0.7-2.6-1.5-5.3-1.9-8
					c-0.6-2.7-0.8-5.4-1-8.1c0-1.4-0.1-2.7-0.1-4.1c0-0.7,0-1.4,0-2l0.1-2c0.2-5.4,1.2-10.8,2.7-16c1.4-5.2,3.8-10.1,6.5-14.8
					l1.1-1.7c0.4-0.6,0.7-1.2,1.1-1.7l2.4-3.2c1.8-2,3.5-4.1,5.6-5.9c4-3.6,8.5-6.8,13.4-8.9c4.9-2.2,10.2-3.6,15.6-4.3
					c5.4-0.5,10.8-0.9,16.1-1.2c5.4-0.3,10.8-0.6,16.2-0.8c10.8-0.4,21.6-0.7,32.4-0.9c5.4-0.1,10.8-0.1,16.2-0.1
					c2.7,0,5.4,0,8.1,0.1c1.4,0,2.7,0.1,4.1,0.1l4.3,0.4c5.7,0.8,11.3,2.5,16.6,5c5.2,2.6,10,6.2,14.2,10.3l1.5,1.6
					c0.5,0.5,1,1,1.5,1.6l2.8,3.4c0.9,1.2,1.7,2.4,2.5,3.6c0.9,1.2,1.5,2.5,2.3,3.8c1.5,2.5,2.6,5.3,3.8,8c0.9,2.8,2,5.5,2.6,8.4
					c0.8,2.8,1.2,5.8,1.7,8.7c0.2,1.5,0.2,2.9,0.4,4.4l0.2,2.2c0,0.7,0,1.5,0,2.2c0.2,5.9-0.7,11.9-2.2,17.7
					c-0.4,1.4-0.8,2.9-1.2,4.4l-1.6,4.3c-0.6,1.4-1.3,2.8-1.9,4.1c-0.3,0.7-0.6,1.4-1,2l-1.2,2c-1.5,2.7-3.3,5.1-5.2,7.6
					c-1,1.2-2,2.3-3,3.5c-1,1.1-2.2,2.2-3.3,3.2c-4.6,4.1-9.8,7.5-15.5,10C208.7,234.1,202.7,235.7,196.7,236.5z M194.5,222.1
					c4.6-1,9.1-2.5,13.2-4.6c4.1-2.1,7.9-4.8,11.4-7.8c3.5-3,6.6-6.5,9.2-10.4c2.6-3.9,4.7-8.1,6.1-12.7c1.4-4.5,2.5-9.3,2.7-14.1
					c0-0.6,0.1-1.2,0.1-1.8l0-1.8c0-1.2,0-2.4,0-3.7c-0.2-2.4-0.3-4.9-0.8-7.3c-0.3-2.4-1-4.8-1.6-7.2c-0.8-2.3-1.5-4.7-2.6-6.9
					c-0.5-1.1-1-2.3-1.6-3.3c-0.6-1.1-1.2-2.2-1.8-3.2l-2.1-3.1c-0.3-0.5-0.7-1-1.1-1.5l-1.2-1.4c-3.2-3.7-6.9-7.1-11.1-9.7
					c-4.2-2.6-8.9-4.4-13.8-5.5l-3.7-0.7c-1.3-0.2-2.6-0.3-4-0.5c-2.7-0.3-5.3-0.5-8-0.8c-5.3-0.5-10.7-0.8-16.1-1.2
					c-10.7-0.7-21.5-1-32.3-1.2c-10.8-0.1-21.5,0-32.3,0.7c-5.3,0.5-10.6,1.8-15.5,3.9c-1.2,0.6-2.4,1.1-3.6,1.7l-3.4,2.1
					c-0.6,0.3-1.1,0.7-1.7,1.1l-1.6,1.2c-0.5,0.4-1.1,0.8-1.6,1.2l-1.5,1.4c-2.1,1.7-3.8,3.8-5.6,5.8l-2.4,3.2
					c-0.4,0.5-0.8,1.1-1.1,1.7l-1.1,1.7c-2.7,4.6-4.9,9.6-6.3,14.8c-1.4,5.2-2.2,10.5-2.2,15.9l-0.1,2c0,0.7,0.1,1.3,0.1,2
					c0.1,1.3,0.2,2.7,0.3,4c0.4,2.6,0.7,5.3,1.4,7.9c0.5,2.6,1.5,5.1,2.3,7.6l1.6,3.6l0.4,0.9l0.5,0.9l1,1.7
					c2.6,4.6,5.7,8.9,9.5,12.4c3.8,3.6,8,6.6,12.6,9c4.6,2.3,9.6,3.8,14.6,4.6l3.8,0.5c1.3,0.1,2.6,0.2,4,0.3c2.7,0.2,5.3,0.4,8,0.5
					c5.3,0.3,10.7,0.4,16,0.4c5.3,0,10.7-0.1,16-0.2c5.3-0.2,10.6-0.4,15.9-0.9C173.8,225.2,184.3,223.9,194.5,222.1z"/>
			</g>
		</g>
		<path class="st1" d="M99.3,144.7c-9.5,0-17.3,7.7-17.3,17.3c0,9.5,7.7,17.3,17.3,17.3c9.5,0,17.3-7.7,17.3-17.3
			C116.5,152.4,108.8,144.7,99.3,144.7z M99.3,174.5c-7,0-12.6-5.7-12.6-12.6s5.7-12.6,12.6-12.6c7,0,12.6,5.7,12.6,12.6
			S106.2,174.5,99.3,174.5z"/>
		<path class="st1" d="M198,144.7c-9.5,0-17.3,7.7-17.3,17.3c0,9.5,7.7,17.3,17.3,17.3c9.5,0,17.3-7.7,17.3-17.3
			C215.3,152.4,207.5,144.7,198,144.7z M198,174.5c-7,0-12.6-5.7-12.6-12.6s5.7-12.6,12.6-12.6c7,0,12.6,5.7,12.6,12.6
			S205,174.5,198,174.5z"/>
		<path class="st1" d="M177.8,184.7H121c-1.3,0-2.3,1-2.3,2.3c0,16.9,13.8,30.7,30.7,30.7s30.7-13.8,30.7-30.7
			C180.1,185.7,179.1,184.7,177.8,184.7z M149.4,213.1c-13.6,0-24.8-10.5-26-23.8h51.9C174.2,202.6,163,213.1,149.4,213.1z"/>
	</g>
	<g>
		<path class="st3" d="M268.8,22.3c-5.1-2.4-10.8-2.6-16.1-0.6c-5.3,1.9-9.5,5.8-11.8,10.9c-2.4,5.1-2.6,10.8-0.6,16.1
			c1.9,5.3,5.8,9.5,10.9,11.8c2.9,1.3,5.9,1.9,8.8,1.9c1.7,0,3.3-0.2,4.9-0.6c0.7,9-1.6,16-5.4,21.4c-1-1.1-2.1-2.2-3.2-3.2
			c-6.5-5.7-14.5-8.9-22.6-8.9c-0.1,0-0.2,0-0.3,0c-6,0-11.5,1.7-16,4.9c-18.3-9.8-41.1-14.7-67.9-14.7c-29.9,0-53.6,4.9-72.1,14.7
			c-4.5-3.3-10.1-5-16.3-4.9C53,71.3,45,74.4,38.5,80.1c-1.2,1-2.2,2.1-3.2,3.2c-3.8-5.4-6.1-12.4-5.4-21.4c1.6,0.4,3.3,0.6,4.9,0.6
			c3,0,6-0.6,8.8-1.9c5.1-2.4,9-6.6,10.9-11.8c1.9-5.3,1.7-11-0.6-16.1c-2.4-5.1-6.6-9-11.8-10.9c-5.3-1.9-11-1.7-16.1,0.6
			c-5.1,2.4-9,6.6-10.9,11.8c-1.9,5.3-1.7,11,0.6,16.1c2.1,4.5,5.6,7.9,9.7,10c-1,10.5,1.3,19.6,6.9,26.8
			c-7.9,11.5-8.2,26.1,0.3,35.7c1,1.1,2.1,2.1,3.2,3c-4,11.2-6.8,24.1-8.4,39c-2.9,27.2,4,51,20,68.8c20.7,23,56,35.2,102,35.2
			c46.6,0,82.1-12.3,102.8-35.7c15.8-17.9,22.5-41.5,19.2-68.4c-1.8-15.1-5.4-28.7-10.6-40.7c0.4-0.4,0.9-0.9,1.3-1.3
			c8.4-9.6,8.1-24.3,0.3-35.7c5.6-7.3,7.9-16.3,6.9-26.8c4.1-2.1,7.6-5.5,9.7-10C284,39.8,279.4,27.2,268.8,22.3z M19.8,48.4
			c-1.8-4-2-8.4-0.5-12.6c1.5-4.1,4.5-7.4,8.5-9.2c4-1.8,8.4-2,12.6-0.5c4.1,1.5,7.4,4.5,9.2,8.5c1.8,4,2,8.4,0.5,12.6
			c-1.5,4.1-4.5,7.4-8.5,9.2C33.4,60.2,23.6,56.6,19.8,48.4z M41.5,83.6c5.7-5,12.6-7.7,19.6-7.8c0.1,0,0.2,0,0.2,0
			c4.2,0,8.1,1,11.5,2.9c-5.2,3.2-10,6.8-14.3,10.9c-9,8.6-15.9,19-21.1,31.7c-0.5-0.5-1-1-1.5-1.5C27.4,110,29.9,93.8,41.5,83.6z
			 M266.9,165.4c3.1,25.5-3.1,47.9-18.1,64.7c-19.8,22.3-54.1,34.1-99.4,34.1c-44.7,0-78.8-11.6-98.6-33.7
			c-15.1-16.8-21.6-39.4-18.9-65.2C39.5,95.7,74.6,66,149.4,66C219.3,66,258.9,99.5,266.9,165.4z M258.8,119.7
			c-5.1-10.5-11.6-19.7-19.4-27.4c-5.2-5.2-11.1-9.7-17.5-13.6c3.3-1.9,7.2-2.9,11.4-2.9c0.1,0,0.2,0,0.2,0c7,0.1,14,2.8,19.6,7.8
			C264.8,93.7,267.3,109.8,258.8,119.7z M274.9,48.4c-3.8,8.2-13.6,11.8-21.8,8c-4-1.8-7-5.1-8.5-9.2s-1.3-8.6,0.5-12.6
			c1.8-4,5.1-7,9.2-8.5c1.8-0.7,3.8-1,5.7-1c2.3,0,4.7,0.5,6.9,1.5C275.1,30.4,278.7,40.1,274.9,48.4z"/>
		<g>
			<path class="st4" d="M196.1,107.8c-23.5-1.8-68.4-2.2-93.4,0c-29.8,2.6-52.3,29.7-52.3,63c0,32.9,21.5,58.8,52.2,63
				c12.9,1.8,30.5,3,48.7,3c15.3,0,31.1-0.9,45-3c30.7-4.7,52.2-30.6,52.2-63C248.5,137.2,226,110.1,196.1,107.8z M195.6,229.3
				c-29.9,4.6-68.8,3.2-92.4,0C74.9,225.4,55,201.4,55,170.9c0-30.9,20.7-56,48.1-58.4c11.6-1,27.9-1.4,44.4-1.4
				c18.1,0,36.3,0.5,48.3,1.4c27.4,2.1,48.1,27.2,48.1,58.4C243.9,200.9,224,224.9,195.6,229.3z"/>
			<g>
				<path class="st4" d="M195.9,110.1c-11.3-0.9-22.6-1.4-34-1.8c-11.4-0.3-22.7-0.4-34.1-0.3c-5.7,0.1-11.4,0.2-17,0.4
					c-2.8,0.1-5.7,0.3-8.5,0.5c-2.8,0.2-5.5,0.7-8.2,1.3c-2.7,0.6-5.4,1.6-7.9,2.7c-2.6,1.1-5.1,2.4-7.4,3.9c-4.8,3-9,6.8-12.7,11
					c-7.4,8.6-12.2,19.2-14.3,30.3c-0.5,2.8-0.9,5.6-1,8.4c-0.1,1.4-0.1,2.8-0.2,4.3l0.1,4.3c0.4,5.7,1.2,11.3,3,16.7
					c3.3,10.9,9.7,20.8,18.4,28.2c4.4,3.7,9.2,6.7,14.4,9c5.2,2.2,10.8,3.7,16.4,4.5c22.6,2.8,45.5,3.3,68.1,1.9
					c5.7-0.4,11.3-0.9,17-1.6c2.8-0.4,5.6-0.7,8.4-1.2c2.7-0.6,5.5-1.1,8.2-2c1.3-0.4,2.7-0.8,4-1.4c1.3-0.5,2.6-1,3.9-1.6l3.7-1.9
					c0.6-0.3,1.2-0.7,1.8-1.1l1.8-1.1l1.8-1.1l1.6-1.3l1.6-1.3l0.8-0.6l0.8-0.7l3-2.9l2.8-3.1c3.5-4.3,6.6-9,8.8-14
					c2.2-5.1,3.8-10.4,4.8-15.9c0.2-1.4,0.3-2.7,0.5-4.1l0.2-2.1l0.1-2.1c0-1.4,0.1-2.8,0.1-4.1c0-1.4-0.1-2.8-0.2-4.1
					c-0.4-5.5-1.5-11-3.2-16.2c-3.4-10.5-9.5-20-17.7-27.2C217.2,115.7,206.8,111,195.9,110.1z M196.3,105.6c3,0.2,5.9,0.7,8.8,1.3
					c2.9,0.7,5.7,1.6,8.5,2.7c2.8,1.1,5.4,2.5,7.9,4.1c1.3,0.8,2.5,1.6,3.7,2.5c1.2,0.9,2.3,1.8,3.5,2.8c9,7.9,15.3,18.4,18.7,29.6
					c1.7,5.6,2.7,11.4,3,17.3c0.1,1.5,0.1,2.9,0.1,4.4c0,1.5-0.1,2.9-0.2,4.4l-0.1,2.2c-0.1,0.7-0.2,1.5-0.3,2.2
					c-0.2,1.4-0.4,2.9-0.6,4.3c-1.1,5.8-2.9,11.3-5.4,16.6c-2.5,5.3-5.8,10.1-9.7,14.5l-3,3.2l-3.3,2.9l-0.8,0.7l-0.9,0.7l-1.7,1.3
					l-1.7,1.3l-1.9,1.1l-1.9,1.1c-0.6,0.4-1.2,0.8-1.9,1.1l-3.9,1.9c-1.3,0.6-2.7,1.1-4,1.6c-1.3,0.6-2.7,0.9-4.1,1.3
					c-2.8,0.9-5.6,1.3-8.5,1.9c-2.8,0.4-5.7,0.7-8.5,1c-5.7,0.6-11.4,1-17.1,1.2c-11.4,0.5-22.8,0.4-34.2-0.1
					c-11.4-0.5-22.8-1.3-34-2.9c-5.6-0.9-11.2-2.4-16.4-4.6c-5.2-2.4-10-5.4-14.4-9.1c-8.6-7.5-15.1-17.3-18.4-28.2
					c-1.8-5.4-2.7-11.1-3.1-16.8l-0.2-4.3c0-1.4,0-2.9,0.1-4.3c0.1-2.9,0.5-5.7,0.9-8.5c1.9-11.3,6.5-22.1,13.9-31
					c7.3-8.9,17.3-15.7,28.5-18.8c2.8-0.8,5.7-1.3,8.5-1.6c2.9-0.3,5.7-0.5,8.6-0.7c5.7-0.4,11.4-0.7,17.1-0.9
					c11.4-0.4,22.8-0.6,34.2-0.5C173.4,104.6,184.8,104.9,196.3,105.6z"/>
				<path class="st4" d="M195.9,231.5c-10.8,1.5-21.6,2.2-32.5,2.4c-10.8,0.2-21.7,0-32.5-0.7c-5.4-0.3-10.8-0.8-16.2-1.4
					c-2.7-0.3-5.4-0.6-8.1-1c-1.3-0.2-2.7-0.4-4-0.6l-4-0.8c-5.3-1.3-10.5-3.2-15.3-5.9c-4.7-2.8-9-6.2-12.8-10.2
					c-3.8-3.9-6.8-8.5-9.2-13.4l-0.9-1.8l-0.4-0.9l-0.4-0.9l-1.5-3.8c-0.7-2.6-1.6-5.2-2-7.9c-0.6-2.6-0.8-5.3-1.2-8
					c-0.1-1.3-0.1-2.7-0.2-4c0-0.7-0.1-1.3,0-2l0.1-2c0.1-5.4,1.1-10.8,2.5-15.9c1.4-5.2,3.7-10.2,6.4-14.8l1.1-1.7
					c0.4-0.6,0.7-1.2,1.1-1.7l2.4-3.2c1.8-2,3.5-4.1,5.6-5.8c4-3.6,8.4-6.8,13.4-8.9c4.9-2.2,10.2-3.5,15.6-4.1
					c10.7-1,21.5-1.3,32.3-1.6c10.8-0.3,21.6-0.3,32.3-0.2c5.4,0.1,10.8,0.2,16.2,0.4c2.7,0.1,5.4,0.2,8.1,0.3
					c1.4,0.1,2.7,0.1,4.1,0.2l4.1,0.5c5.4,0.9,10.7,2.6,15.6,5.2c4.9,2.6,9.3,6.1,13.1,10.1l1.4,1.5c0.5,0.5,1,1,1.4,1.6l2.5,3.3
					c0.8,1.1,1.5,2.3,2.3,3.5c0.8,1.1,1.4,2.4,2,3.6c1.4,2.4,2.3,5,3.4,7.6c0.8,2.6,1.8,5.3,2.3,8c0.7,2.7,1,5.5,1.4,8.2
					c0.1,1.4,0.2,2.8,0.2,4.1l0.1,2.1c0,0.7,0,1.4-0.1,2.1c0,5.6-0.9,11.1-2.4,16.5c-1.4,5.4-3.7,10.6-6.6,15.4
					c-1.4,2.4-3.1,4.7-4.8,6.9l-2.8,3.2c-1,1-2,1.9-3.1,2.9c-1,1-2.1,1.8-3.3,2.7c-1.1,0.9-2.2,1.7-3.4,2.4
					c-1.2,0.7-2.4,1.5-3.6,2.2l-3.8,1.9C206.9,229.1,201.5,230.7,195.9,231.5z M195.2,227c5.1-0.9,10.1-2.5,14.7-4.6
					c4.7-2.2,8.9-5.2,12.8-8.5c3.9-3.4,7.2-7.4,10-11.7c2.8-4.4,5-9.1,6.4-14.1c1.4-5,2.4-10.1,2.5-15.4c0-0.7,0.1-1.3,0.1-2l-0.1-2
					c-0.1-1.3,0-2.6-0.1-3.9c-0.3-2.6-0.5-5.2-1.1-7.8c-0.4-2.6-1.3-5.1-2-7.6c-1-2.4-1.8-4.9-3-7.2c-0.6-1.2-1.1-2.4-1.8-3.5
					c-0.7-1.1-1.3-2.3-2-3.4l-2.3-3.2c-0.4-0.5-0.8-1-1.2-1.5l-1.3-1.5c-3.5-3.9-7.6-7.3-12.2-9.9c-4.6-2.6-9.6-4.4-14.8-5.4
					l-3.9-0.6c-1.3-0.1-2.7-0.2-4-0.3c-2.7-0.2-5.4-0.4-8-0.5c-5.4-0.3-10.8-0.5-16.1-0.7c-21.5-0.7-43.1-0.9-64.6,0.7
					c-5.4,0.5-10.6,1.9-15.6,4c-5,2.1-9.4,5.2-13.4,8.8c-2.1,1.8-3.8,3.8-5.6,5.8l-2.4,3.2c-0.4,0.5-0.8,1.1-1.1,1.7l-1.1,1.7
					c-2.7,4.6-5,9.6-6.4,14.8c-1.4,5.2-2.3,10.5-2.4,15.9l-0.1,2c0,0.7,0.1,1.3,0.1,2c0.1,1.3,0.1,2.7,0.2,4c0.4,2.7,0.6,5.3,1.3,8
					c0.5,2.6,1.4,5.2,2.2,7.7l1.5,3.7l0.4,0.9l0.5,0.9l0.9,1.8c2.5,4.7,5.6,9.2,9.4,12.9c3.7,3.8,8,7,12.7,9.6
					c4.7,2.5,9.7,4.2,14.9,5.3l3.9,0.7c1.3,0.2,2.7,0.3,4,0.5c2.7,0.3,5.3,0.5,8,0.7c5.4,0.4,10.7,0.7,16.1,0.9
					c10.7,0.4,21.5,0.4,32.2-0.1C174,229.7,184.7,228.7,195.2,227z"/>
			</g>
		</g>
		<path class="st3" d="M99.3,144.7c-9.5,0-17.3,7.7-17.3,17.3c0,9.5,7.7,17.3,17.3,17.3c9.5,0,17.3-7.7,17.3-17.3
			C116.5,152.4,108.8,144.7,99.3,144.7z M99.3,174.5c-7,0-12.6-5.7-12.6-12.6s5.7-12.6,12.6-12.6c7,0,12.6,5.7,12.6,12.6
			S106.2,174.5,99.3,174.5z"/>
		<path class="st3" d="M198,144.7c-9.5,0-17.3,7.7-17.3,17.3c0,9.5,7.7,17.3,17.3,17.3c9.5,0,17.3-7.7,17.3-17.3
			C215.3,152.4,207.5,144.7,198,144.7z M198,174.5c-7,0-12.6-5.7-12.6-12.6s5.7-12.6,12.6-12.6c7,0,12.6,5.7,12.6,12.6
			S205,174.5,198,174.5z"/>
		<path class="st3" d="M177.8,184.7H121c-1.3,0-2.3,1-2.3,2.3c0,16.9,13.8,30.7,30.7,30.7s30.7-13.8,30.7-30.7
			C180.1,185.7,179.1,184.7,177.8,184.7z M149.4,213.1c-13.6,0-24.8-10.5-26-23.8h51.9C174.2,202.6,163,213.1,149.4,213.1z"/>
	</g>
	<rect x="85.4" y="136" transform="matrix(0.8374 -0.5466 0.5466 0.8374 -62.971 70.8734)" class="st3" width="4.4" height="10.6"/>
	
		<rect x="74.3" y="147.5" transform="matrix(0.5135 -0.8581 0.8581 0.5135 -94.837 141.1537)" class="st3" width="5.5" height="13.3"/>
	
		<rect x="216.2" y="149.9" transform="matrix(0.8374 -0.5466 0.5466 0.8374 -47.1327 145.8032)" class="st3" width="10.6" height="4.4"/>
	
		<rect x="203.6" y="139.1" transform="matrix(0.5135 -0.8581 0.8581 0.5135 -19.5783 248.0086)" class="st3" width="10.6" height="4.4"/>
</g>
</svg>
